HIERARCHY
ROOT hip
{
  OFFSET 0.00112043 5.09927 -9.65472
  CHANNELS 6 Xposition Yposition Zposition Zrotation Xrotation Yrotation
  JOINT abdomen
  {
    OFFSET 0 -1.186 -1.5018
    CHANNELS 3 Zrotation Xrotation Yrotation
    JOINT abdomen2
    {
      OFFSET 0 9.964 0.2134
      CHANNELS 3 Zrotation Xrotation Yrotation
      JOINT chest
      {
        OFFSET 0 13.134 -3.2573
        CHANNELS 3 Zrotation Xrotation Yrotation
        JOINT neck
        {
          OFFSET 0 20.686 -1.6905
          CHANNELS 3 Zrotation Xrotation Yrotation
          JOINT head
          {
            OFFSET 0 7.238 -0.1237
            CHANNELS 3 Zrotation Xrotation Yrotation
            End Site
            {
              OFFSET 0 0 0
            }
          }
        }
        JOINT lCollar
        {
          OFFSET 1.7069 20.075 5.0056
          CHANNELS 3 Zrotation Xrotation Yrotation
          JOINT lShldr
          {
            OFFSET 13.6458 -0.047 -4.849
            CHANNELS 3 Zrotation Xrotation Yrotation
            JOINT lForeArm
            {
              OFFSET 28.3255 -0.9759 2.2888
              CHANNELS 3 Zrotation Xrotation Yrotation
              JOINT lHand
              {
                OFFSET 22.1583 -0.53 10.8316
                CHANNELS 3 Zrotation Xrotation Yrotation
                JOINT lThumb1
                {
                  OFFSET 0.786 0.112 2.5817
                  CHANNELS 3 Zrotation Xrotation Yrotation
                  JOINT lThumb2
                  {
                    OFFSET 0.3601 -0.878 4.2331
                    CHANNELS 3 Zrotation Xrotation Yrotation
                    JOINT lThumb2_End
                    {
                      OFFSET 1.8127 -1.216 2.2227
                      CHANNELS 3 Zrotation Xrotation Yrotation
                      End Site
                      {
                        OFFSET 0.0181 -0.0122 0.0222
                      }
                    }
                  }
                }
                JOINT lCarpal1
                {
                  OFFSET 0.9571 1.114 1.7695
                  CHANNELS 3 Zrotation Xrotation Yrotation
                  JOINT lIndex1
                  {
                    OFFSET 4.1246 0.487 4.1451
                    CHANNELS 3 Zrotation Xrotation Yrotation
                    JOINT lIndex2
                    {
                      OFFSET 3.4052 -1.454 2.7682
                      CHANNELS 3 Zrotation Xrotation Yrotation
                      JOINT lIndex2_End
                      {
                        OFFSET 1.4531 -1.795 1.2713
                        CHANNELS 3 Zrotation Xrotation Yrotation
                        End Site
                        {
                          OFFSET 0.0145 -0.0179 0.0127
                        }
                      }
                    }
                  }
                  JOINT lMid1
                  {
                    OFFSET 5.6954 0.21 2.1184
                    CHANNELS 3 Zrotation Xrotation Yrotation
                    JOINT lMid2
                    {
                      OFFSET 3.9766 -1.54 2.3863
                      CHANNELS 3 Zrotation Xrotation Yrotation
                      JOINT lMid2_End
                      {
                        OFFSET 1.4042 -1.926 1.125
                        CHANNELS 3 Zrotation Xrotation Yrotation
                        End Site
                        {
                          OFFSET 0.014 -0.0193 0.0113
                        }
                      }
                    }
                  }
                }
                JOINT lCarpal2
                {
                  OFFSET 2.0956 0.66 -0.3894
                  CHANNELS 3 Zrotation Xrotation Yrotation
                  JOINT lRing1
                  {
                    OFFSET 5.0395 -0.09 2.4971
                    CHANNELS 3 Zrotation Xrotation Yrotation
                    JOINT lRing2
                    {
                      OFFSET 3.7921 -1.552 1.4806
                      CHANNELS 3 Zrotation Xrotation Yrotation
                      JOINT lRing2_End
                      {
                        OFFSET 1.4655 -1.808 0.9609
                        CHANNELS 3 Zrotation Xrotation Yrotation
                        End Site
                        {
                          OFFSET 0.0147 -0.0181 0.0096
                        }
                      }
                    }
                  }
                  JOINT lPinky1
                  {
                    OFFSET 4.9141 -1.269 0.3591
                    CHANNELS 3 Zrotation Xrotation Yrotation
                    JOINT lPinky2
                    {
                      OFFSET 3.1477 -1.685 0.8462
                      CHANNELS 3 Zrotation Xrotation Yrotation
                      JOINT lPinky2_End
                      {
                        OFFSET 0.8055 -1.585 0.7955
                        CHANNELS 3 Zrotation Xrotation Yrotation
                        End Site
                        {
                          OFFSET 0.0081 -0.0158 0.008
                        }
                      }
                    }
                  }
                }
              }
            }
          }
        }
        JOINT rCollar
        {
          OFFSET -1.7069 20.075 5.0056
          CHANNELS 3 Zrotation Xrotation Yrotation
          JOINT rShldr
          {
            OFFSET -13.6458 -0.047 -4.849
            CHANNELS 3 Zrotation Xrotation Yrotation
            JOINT rForeArm
            {
              OFFSET -28.3255 -0.9759 2.2888
              CHANNELS 3 Zrotation Xrotation Yrotation
              JOINT rHand
              {
                OFFSET -22.1583 -0.53 10.8316
                CHANNELS 3 Zrotation Xrotation Yrotation
                JOINT rThumb1
                {
                  OFFSET -0.786 0.112 2.5817
                  CHANNELS 3 Zrotation Xrotation Yrotation
                  JOINT rThumb2
                  {
                    OFFSET -0.3601 -0.878 4.2331
                    CHANNELS 3 Zrotation Xrotation Yrotation
                    JOINT rThumb2_End
                    {
                      OFFSET -1.8127 -1.216 2.2227
                      CHANNELS 3 Zrotation Xrotation Yrotation
                      End Site
                      {
                        OFFSET -0.0181 -0.0122 0.0222
                      }
                    }
                  }
                }
                JOINT rCarpal1
                {
                  OFFSET -0.9571 1.114 1.7695
                  CHANNELS 3 Zrotation Xrotation Yrotation
                  JOINT rIndex1
                  {
                    OFFSET -4.1246 0.487 4.1451
                    CHANNELS 3 Zrotation Xrotation Yrotation
                    JOINT rIndex2
                    {
                      OFFSET -3.4052 -1.454 2.7682
                      CHANNELS 3 Zrotation Xrotation Yrotation
                      JOINT rIndex2_End
                      {
                        OFFSET -1.4531 -1.795 1.2713
                        CHANNELS 3 Zrotation Xrotation Yrotation
                        End Site
                        {
                          OFFSET -0.0145 -0.018 0.0127
                        }
                      }
                    }
                  }
                  JOINT rMid1
                  {
                    OFFSET -5.6954 0.21 2.1184
                    CHANNELS 3 Zrotation Xrotation Yrotation
                    JOINT rMid2
                    {
                      OFFSET -3.9766 -1.54 2.3863
                      CHANNELS 3 Zrotation Xrotation Yrotation
                      JOINT rMid2_End
                      {
                        OFFSET -1.4042 -1.926 1.125
                        CHANNELS 3 Zrotation Xrotation Yrotation
                        End Site
                        {
                          OFFSET -0.014 -0.0193 0.0113
                        }
                      }
                    }
                  }
                }
                JOINT rCarpal2
                {
                  OFFSET -2.0956 0.66 -0.3894
                  CHANNELS 3 Zrotation Xrotation Yrotation
                  JOINT rRing1
                  {
                    OFFSET -5.0395 -0.09 2.4971
                    CHANNELS 3 Zrotation Xrotation Yrotation
                    JOINT rRing2
                    {
                      OFFSET -3.7921 -1.552 1.4806
                      CHANNELS 3 Zrotation Xrotation Yrotation
                      JOINT rRing2_End
                      {
                        OFFSET -1.4655 -1.808 0.9609
                        CHANNELS 3 Zrotation Xrotation Yrotation
                        End Site
                        {
                          OFFSET -0.0147 -0.0181 0.0096
                        }
                      }
                    }
                  }
                  JOINT rPinky1
                  {
                    OFFSET -4.9141 -1.269 0.3592
                    CHANNELS 3 Zrotation Xrotation Yrotation
                    JOINT rPinky2
                    {
                      OFFSET -3.1477 -1.685 0.8462
                      CHANNELS 3 Zrotation Xrotation Yrotation
                      JOINT rPinky2_End
                      {
                        OFFSET -0.8055 -1.585 0.7955
                        CHANNELS 3 Zrotation Xrotation Yrotation
                        End Site
                        {
                          OFFSET -0.0081 -0.0158 0.008
                        }
                      }
                    }
                  }
                }
              }
            }
          }
        }
      }
    }
  }
  JOINT lThigh
  {
    OFFSET 8.367 -8.2066 0.5982
    CHANNELS 3 Zrotation Xrotation Yrotation
    JOINT lShin
    {
      OFFSET 2.1923 -43.463 -0.4932
      CHANNELS 3 Zrotation Xrotation Yrotation
      JOINT lFoot
      {
        OFFSET 0.7333 -45.8593 -2.6451
        CHANNELS 3 Zrotation Xrotation Yrotation
        End Site
        {
          OFFSET 2.6618 -4.2699 12.3931
        }
      }
    }
  }
  JOINT rThigh
  {
    OFFSET -8.367 -8.2066 0.5982
    CHANNELS 3 Zrotation Xrotation Yrotation
    JOINT rShin
    {
      OFFSET -2.1923 -43.463 -0.4931
      CHANNELS 3 Zrotation Xrotation Yrotation
      JOINT rFoot
      {
        OFFSET -0.7333 -45.8593 -2.6451
        CHANNELS 3 Zrotation Xrotation Yrotation
        End Site
        {
          OFFSET -2.6618 -4.2699 12.3931
        }
      }
    }
  }
}
MOTION
Frames:	6
Frame Time:	0.0333333
-0.833391 22.4584 37.971 -1.46329e-014 47.3461 -180 -0.337775 14.5656 -0.0112172 -0.708805 29.131 0.0736007 -0.708805 29.131 0.0736008 -10.1763 -32.2075 -5.66783 -11.138 -11.399 -26.8642 10.9352 9.26745 -20.6314 -53.169 5.6719 -25.9241 -6.66601 2.40503 17.0764 -9.66842 -2.92028 -14.6313 -5.56129e-007 2.52399e-006 1.93671e-006 -1.32417e-031 3.18055e-015 2.38542e-015 4.49185e-006 3.63625e-006 4.15683e-006 -4.41391e-032 -3.18055e-015 -7.95139e-016 -5.56129e-007 2.52399e-006 1.93671e-006 -2.38542e-015 0 1.59028e-015 4.49185e-006 3.63625e-006 4.15683e-006 -5.56129e-007 2.52399e-006 1.93671e-006 -2.38542e-015 0 1.59028e-015 4.49185e-006 3.63625e-006 4.15683e-006 -4.41391e-032 -3.18055e-015 -7.95139e-016 -5.56129e-007 2.52399e-006 1.93671e-006 -2.38542e-015 0 1.59028e-015 4.49185e-006 3.63625e-006 4.15683e-006 -5.56129e-007 2.52399e-006 1.93671e-006 -2.38542e-015 0 1.59028e-015 4.49185e-006 3.63625e-006 4.15683e-006 -10.3579 9.97407 21.0706 52.5841 5.33352 26.1478 4.51624 2.63364 -18.2985 10.2027 -4.09729 14.9982 8.74653e-015 9.54166e-015 1.59028e-015 7.15625e-015 3.18055e-015 -7.95139e-016 -1.57258e-006 -7.80289e-007 4.45953e-006 3.18055e-015 6.36111e-015 3.18055e-015 6.36111e-015 3.18055e-015 -7.95139e-016 8.74653e-015 -3.18055e-015 -0 -1.57258e-006 -7.80289e-007 4.45953e-006 6.36111e-015 3.18055e-015 -7.95139e-016 8.74653e-015 -3.18055e-015 -0 -1.57258e-006 -7.80289e-007 4.45953e-006 3.18055e-015 6.36111e-015 3.18055e-015 6.36111e-015 3.18055e-015 -7.95139e-016 8.74653e-015 -3.18055e-015 -0 -1.57258e-006 -7.80289e-007 4.45953e-006 6.36111e-015 3.18055e-015 -7.95139e-016 8.74653e-015 -3.18055e-015 -0 -1.57258e-006 -7.80289e-007 4.45953e-006 45.4433 -30.7121 83.2245 6.50676 45.114 -57.805 15.2231 34.3509 30.9814 -45.459 -30.7102 -83.2424 -6.52482 45.1123 57.8183 -15.2325 34.355 -30.9882 
-0.83342 22.4704 38.1247 -1.44045e-014 46.4758 -180 -0.338147 14.6123 -0.0103701 -0.710083 29.2244 0.0758798 -0.710084 29.2244 0.0758804 -9.99965 -31.2703 -5.45854 -10.5043 -11.072 -26.6061 11.151 8.79263 -20.72 -53.169 5.67189 -25.9241 -6.66598 2.40504 17.0764 -9.37506 -3.5107 -15.2381 5.59015e-007 -2.52737e-006 -1.93423e-006 7.95139e-016 -3.18055e-015 -2.38542e-015 2.22326e-006 -3.12052e-006 -6.39583e-006 -1.76556e-031 -6.36111e-015 -1.59028e-015 5.59015e-007 -2.52737e-006 -1.93423e-006 4.77083e-015 -9.54166e-015 2.38542e-015 2.22326e-006 -3.12052e-006 -6.39583e-006 5.59015e-007 -2.52737e-006 -1.93423e-006 4.77083e-015 -9.54166e-015 2.38542e-015 2.22326e-006 -3.12052e-006 -6.39583e-006 -1.76556e-031 -6.36111e-015 -1.59028e-015 5.59015e-007 -2.52737e-006 -1.93423e-006 4.77083e-015 -9.54166e-015 2.38542e-015 2.22326e-006 -3.12052e-006 -6.39583e-006 5.59015e-007 -2.52737e-006 -1.93423e-006 4.77083e-015 -9.54166e-015 2.38542e-015 2.22326e-006 -3.12052e-006 -6.39583e-006 -10.5362 9.54409 21.1908 52.5841 5.33351 26.1478 4.51624 2.63363 -18.2985 9.95251 -4.75735 15.623 4.91125e-007 2.62238e-006 -1.8379e-006 7.95139e-015 3.18055e-015 7.95139e-016 4.91125e-007 2.62238e-006 -1.8379e-006 3.97569e-015 -6.36111e-015 3.18055e-015 4.91125e-007 2.62238e-006 -1.8379e-006 2.38542e-015 3.18055e-015 -7.95139e-016 4.91125e-007 2.62238e-006 -1.8379e-006 4.91125e-007 2.62238e-006 -1.8379e-006 2.38542e-015 3.18055e-015 -7.95139e-016 4.91125e-007 2.62238e-006 -1.8379e-006 3.97569e-015 -6.36111e-015 3.18055e-015 4.91125e-007 2.62238e-006 -1.8379e-006 2.38542e-015 3.18055e-015 -7.95139e-016 4.91125e-007 2.62238e-006 -1.8379e-006 4.91125e-007 2.62238e-006 -1.8379e-006 2.38542e-015 3.18055e-015 -7.95139e-016 4.91125e-007 2.62238e-006 -1.8379e-006 45.4479 -31.4499 83.4722 6.23546 44.6003 -57.6361 14.8484 34.6331 31.3394 -45.4644 -31.4481 -83.491 -6.25431 44.5984 57.6505 -14.8614 34.6374 -31.3463 
-0.833464 22.4812 38.2775 -1.41834e-014 45.6058 -180 -0.338526 14.659 -0.00952321 -0.711379 29.3177 0.0781635 -0.711379 29.3177 0.0781636 -9.82751 -30.3283 -5.25362 -9.87159 -10.7416 -26.3516 11.3658 8.31751 -20.8067 -53.169 5.6719 -25.9241 -6.66603 2.40505 17.0763 -9.08785 -4.10407 -15.8423 2.83682e-006 4.25349e-006 8.59513e-006 3.97569e-015 3.18055e-015 -2.38542e-015 -7.95139e-016 -3.18055e-015 -0 1.59028e-015 3.18055e-015 -1.59028e-015 2.83682e-006 4.25349e-006 8.59513e-006 2.38542e-015 3.18055e-015 -7.95139e-016 7.95139e-016 3.18055e-015 -1.59028e-015 2.83682e-006 4.25349e-006 8.59513e-006 2.38542e-015 3.18055e-015 -7.95139e-016 7.95139e-016 3.18055e-015 -1.59028e-015 1.59028e-015 3.18055e-015 -1.59028e-015 2.83682e-006 4.25349e-006 8.59513e-006 2.38542e-015 3.18055e-015 -7.95139e-016 7.95139e-016 3.18055e-015 -1.59028e-015 2.83682e-006 4.25349e-006 8.59513e-006 2.38542e-015 3.18055e-015 -7.95139e-016 7.95139e-016 3.18055e-015 -1.59028e-015 -10.7133 9.11373 21.3095 52.5841 5.33352 26.1478 4.51625 2.63363 -18.2985 9.7094 -5.41993 16.2454 -3.18055e-015 -9.54166e-015 -1.59028e-015 1.59028e-015 3.18055e-015 -5.56597e-015 2.38542e-015 -3.18055e-015 -2.38542e-015 -2.38542e-015 -9.54166e-015 -3.18055e-015 7.95139e-016 -9.54166e-015 4.77083e-015 -2.38542e-015 0 -3.97569e-015 -7.95139e-016 0 -0 7.95139e-016 -9.54166e-015 4.77083e-015 -2.38542e-015 0 -3.97569e-015 -7.95139e-016 0 -0 -2.38542e-015 -9.54166e-015 -3.18055e-015 7.95139e-016 -9.54166e-015 4.77083e-015 -2.38542e-015 0 -3.97569e-015 -7.95139e-016 0 -0 7.95139e-016 -9.54166e-015 4.77083e-015 -2.38542e-015 0 -3.97569e-015 -7.95139e-016 0 -0 45.4572 -32.1873 83.722 5.96917 44.0857 -57.4727 14.4717 34.9133 31.701 -45.4747 -32.1856 -83.7419 -5.989 44.0841 57.488 -14.4846 34.9178 -31.7082 
-0.833508 22.4909 38.4296 -1.39691e-014 44.736 -180 -0.338911 14.7057 -0.00867671 -0.712691 29.4111 0.0804509 -0.712691 29.4111 0.0804508 -9.66065 -29.3835 -5.05342 -9.24001 -10.4079 -26.1007 11.5795 7.84214 -20.8914 -53.169 5.67191 -25.9241 -6.66603 2.40504 17.0764 -8.80681 -4.70019 -16.4437 -1.59028e-015 0 -7.95139e-016 -7.95139e-016 0 -3.18055e-015 -5.65144e-007 2.53379e-006 1.92951e-006 -7.95139e-016 0 -1.59028e-015 -3.18055e-015 0 -2.38542e-015 -2.38542e-015 -3.18055e-015 -7.95139e-016 -5.65144e-007 2.53379e-006 1.92951e-006 -3.18055e-015 0 -2.38542e-015 -2.38542e-015 -3.18055e-015 -7.95139e-016 -5.65144e-007 2.53379e-006 1.92951e-006 -7.95139e-016 0 -1.59028e-015 -3.18055e-015 0 -2.38542e-015 -2.38542e-015 -3.18055e-015 -7.95139e-016 -5.65144e-007 2.53379e-006 1.92951e-006 -3.18055e-015 0 -2.38542e-015 -2.38542e-015 -3.18055e-015 -7.95139e-016 -5.65144e-007 2.53379e-006 1.92951e-006 -10.8894 8.68306 21.4267 52.5841 5.33353 26.1478 4.51625 2.63363 -18.2985 9.47334 -6.08484 16.8655 -3.707e-006 1.40236e-006 -1.51757e-006 2.08524e-006 5.28034e-006 -1.49522e-007 1.547e-006 4.06105e-007 6.24471e-007 -1.59028e-015 9.54166e-015 -1.59028e-015 -3.707e-006 1.40236e-006 -1.51757e-006 2.08524e-006 5.28034e-006 -1.49522e-007 1.547e-006 4.06105e-007 6.24471e-007 -3.707e-006 1.40236e-006 -1.51757e-006 2.08524e-006 5.28034e-006 -1.49522e-007 1.547e-006 4.06105e-007 6.24471e-007 -1.59028e-015 9.54166e-015 -1.59028e-015 -3.707e-006 1.40236e-006 -1.51757e-006 2.08524e-006 5.28034e-006 -1.49522e-007 1.547e-006 4.06105e-007 6.24471e-007 -3.707e-006 1.40236e-006 -1.51757e-006 2.08524e-006 5.28034e-006 -1.49522e-007 1.547e-006 4.06105e-007 6.24471e-007 45.4715 -32.9243 83.9742 5.70795 43.5707 -57.3145 14.0893 35.1915 32.0665 -45.49 -32.9227 -83.9952 -5.72862 43.5692 57.3307 -14.102 35.196 -32.0739 
-0.833549 22.4994 38.5811 -1.37612e-014 43.8666 -180 -0.339291 14.7523 -0.00782375 -0.713999 29.5045 0.0827544 -0.713999 29.5045 0.0827543 -9.49806 -28.4359 -4.85781 -8.60956 -10.071 -25.8533 11.7924 7.36652 -20.9743 -53.169 5.67189 -25.9241 -6.66601 2.40504 17.0764 -8.53196 -5.29894 -17.0424 7.95139e-016 1.27222e-014 -1.59028e-015 2.22759e-006 -3.14638e-006 -6.39139e-006 1.09083e-006 1.92728e-006 -2.53683e-006 -2.38542e-015 1.27222e-014 -7.95139e-016 -1.59028e-015 1.27222e-014 7.15625e-015 2.22759e-006 -3.14638e-006 -6.39139e-006 1.09083e-006 1.92728e-006 -2.53683e-006 -1.59028e-015 1.27222e-014 7.15625e-015 2.22759e-006 -3.14638e-006 -6.39139e-006 1.09083e-006 1.92728e-006 -2.53683e-006 -2.38542e-015 1.27222e-014 -7.95139e-016 -1.59028e-015 1.27222e-014 7.15625e-015 2.22759e-006 -3.14638e-006 -6.39139e-006 1.09083e-006 1.92728e-006 -2.53683e-006 -1.59028e-015 1.27222e-014 7.15625e-015 2.22759e-006 -3.14638e-006 -6.39139e-006 1.09083e-006 1.92728e-006 -2.53683e-006 -11.0643 8.2521 21.5424 52.5841 5.33353 26.1478 4.51623 2.63363 -18.2985 9.24434 -6.75191 17.4833 -1.59028e-015 -1.27222e-014 -3.18055e-015 2.13282e-006 -3.66688e-006 -5.25828e-006 5.01762e-007 2.62914e-006 -1.83344e-006 3.18055e-015 -3.18055e-015 -2.38542e-015 1.11319e-014 3.18055e-015 5.56597e-015 2.13282e-006 -3.66688e-006 -5.25828e-006 5.01762e-007 2.62914e-006 -1.83344e-006 1.11319e-014 3.18055e-015 5.56597e-015 2.13282e-006 -3.66688e-006 -5.25828e-006 5.01762e-007 2.62914e-006 -1.83344e-006 3.18055e-015 -3.18055e-015 -2.38542e-015 1.11319e-014 3.18055e-015 5.56597e-015 2.13282e-006 -3.66688e-006 -5.25828e-006 5.01762e-007 2.62914e-006 -1.83344e-006 1.11319e-014 3.18055e-015 5.56597e-015 2.13282e-006 -3.66688e-006 -5.25828e-006 5.01762e-007 2.62914e-006 -1.83344e-006 45.4908 -33.6607 84.229 5.45155 43.0553 -57.1614 13.7012 35.4674 32.4358 -45.5103 -33.6592 -84.2511 -5.47305 43.0539 57.1785 -13.7137 35.4722 -32.4435 
-0.833596 22.5068 38.7319 -1.35594e-014 42.9976 -180 -0.339672 14.799 -0.00696651 -0.715313 29.5978 0.0850696 -0.715313 29.5978 0.0850696 -9.33779 -27.4844 -4.66613 -7.98025 -9.73083 -25.6096 12.0042 6.89071 -21.0553 -53.169 5.6719 -25.9241 -6.666 2.40504 17.0764 -8.26325 -5.90015 -17.6385 3.18055e-015 -3.18055e-015 -7.95139e-016 5.56597e-015 6.36111e-015 1.59028e-015 3.18055e-015 3.18055e-015 4.77083e-015 3.97569e-015 -3.18055e-015 -1.59028e-015 7.95139e-016 9.54166e-015 1.59028e-015 2.38542e-015 -6.36111e-015 7.95139e-016 8.82781e-032 -6.36111e-015 7.95139e-016 7.95139e-016 9.54166e-015 1.59028e-015 2.38542e-015 -6.36111e-015 7.95139e-016 8.82781e-032 -6.36111e-015 7.95139e-016 3.97569e-015 -3.18055e-015 -1.59028e-015 7.95139e-016 9.54166e-015 1.59028e-015 2.38542e-015 -6.36111e-015 7.95139e-016 8.82781e-032 -6.36111e-015 7.95139e-016 7.95139e-016 9.54166e-015 1.59028e-015 2.38542e-015 -6.36111e-015 7.95139e-016 8.82781e-032 -6.36111e-015 7.95139e-016 -11.2382 7.82087 21.6566 52.5841 5.33352 26.1478 4.51623 2.63364 -18.2985 9.02244 -7.42094 18.0988 -5.05477e-007 -2.63116e-006 1.8322e-006 -7.34031e-006 -2.03293e-006 -8.87412e-007 -1.59028e-015 9.54166e-015 2.38542e-015 2.38542e-015 -6.36111e-015 7.95139e-016 -5.05477e-007 -2.63116e-006 1.8322e-006 -7.34031e-006 -2.03293e-006 -8.87412e-007 2.38542e-015 0 3.18055e-015 -5.05477e-007 -2.63116e-006 1.8322e-006 -7.34031e-006 -2.03293e-006 -8.87412e-007 2.38542e-015 0 3.18055e-015 2.38542e-015 -6.36111e-015 7.95139e-016 -5.05477e-007 -2.63116e-006 1.8322e-006 -7.34031e-006 -2.03293e-006 -8.87412e-007 2.38542e-015 0 3.18055e-015 -5.05477e-007 -2.63116e-006 1.8322e-006 -7.34031e-006 -2.03293e-006 -8.87412e-007 2.38542e-015 0 3.18055e-015 45.5151 -34.3965 84.4864 5.19976 42.5394 -57.0131 13.3074 35.7412 32.809 -45.5358 -34.3951 -84.5096 -5.22214 42.5382 57.031 -13.3197 35.746 -32.817 
